<svg width="360" height="338" viewBox="0 0 360 338" fill="none" xmlns="http://www.w3.org/2000/svg">
<g clip-path="url(#clip0_0_1292)">
<path d="M75.5931 344.81C57.6278 320.474 49.1678 279.637 78.3003 258.62C106.395 238.34 151.071 268.409 176.948 247.385C208.088 222.083 158.682 185.126 162.389 155.449C166.502 122.521 217.375 105.655 250.373 101.572C284.333 97.3945 315.925 113.815 331.01 139.171C350.013 171.092 348.659 209.286 339.801 242.836C329.626 281.368 301.689 314.803 272.121 345.047C238.326 379.611 187.897 392.637 136.595 384.512C108.854 380.111 89.851 364.104 75.5931 344.81Z" fill="#23367D"/>
<path opacity="0.7" d="M75.5931 344.81C57.6279 320.474 49.1678 279.637 78.3003 258.62C106.395 238.34 151.071 268.409 176.948 247.385C208.088 222.083 158.682 185.126 162.389 155.449C166.502 122.521 217.375 105.655 250.373 101.572C284.333 97.3945 315.925 113.815 331.01 139.171C350.013 171.092 348.659 209.286 339.801 242.836C329.626 281.368 301.689 314.803 272.121 345.047C238.326 379.611 187.897 392.637 136.595 384.512C108.854 380.111 89.851 364.104 75.5931 344.81Z" fill="white"/>
<path d="M312.351 233.673V220.234H342.957" stroke="#263238" stroke-linecap="round" stroke-linejoin="round"/>
<path d="M285.151 207.525V233.673H305.959" stroke="#263238" stroke-linecap="round" stroke-linejoin="round"/>
<path d="M285.151 200.569V203.686" stroke="#263238" stroke-linecap="round" stroke-linejoin="round"/>
<path d="M229.728 237.925L244.167 248.058V190.287H285.151V195.533" stroke="#263238" stroke-linecap="round" stroke-linejoin="round"/>
<path d="M177.479 152.992L181.014 151.89V193.606L205.98 204.673V246.091L223.667 233.673L226.239 235.478" stroke="#263238" stroke-linecap="round" stroke-linejoin="round"/>
<path d="M169.614 155.433L173.291 154.29" stroke="#263238" stroke-linecap="round" stroke-linejoin="round"/>
<path d="M119.944 206.112H148.565V161.963L164.786 156.927" stroke="#263238" stroke-linecap="round" stroke-linejoin="round"/>
<path d="M350.079 220.234H353.335V291.451H315.893H312.351H285.151H274.901H244.167H205.98H203.175H181.014H173.531H151.152H148.565H110.168V206.112H115.251" stroke="#263238" stroke-linecap="round" stroke-linejoin="round"/>
<path d="M301.251 265.073V291.451H332.843V248.781" stroke="#263238" stroke-linecap="round" stroke-linejoin="round"/>
<path d="M332.843 243.968H301.251V259.32" stroke="#263238" stroke-linecap="round" stroke-linejoin="round"/>
<path d="M45.1275 214.596V192.897L85.2617 184.264V187.982" stroke="#263238" stroke-linecap="round" stroke-linejoin="round"/>
<path d="M45.1275 224.486V218.916" stroke="#263238" stroke-linecap="round" stroke-linejoin="round"/>
<path d="M85.2617 192.477V291.451H52.7603H45.1275H19.4542V230.306H45.1275" stroke="#263238" stroke-linecap="round" stroke-linejoin="round"/>
<path d="M78.3734 246.091V237.857H74.8315" stroke="#263238" stroke-linecap="round" stroke-linejoin="round"/>
<path d="M69.4246 237.857H52.3618V291.451H78.3734V252.243" stroke="#263238" stroke-linecap="round" stroke-linejoin="round"/>
<path d="M50.1433 214.562V219.653C50.1433 219.839 50.3117 219.991 50.5193 219.991H56.6105C56.8182 219.991 56.9865 219.839 56.9865 219.653V214.562C56.9865 214.376 56.8182 214.224 56.6105 214.224H50.5193C50.3117 214.224 50.1433 214.376 50.1433 214.562Z" stroke="#263238" stroke-linecap="round" stroke-linejoin="round"/>
<path d="M60.927 222.938V228.028C60.927 228.215 61.0953 228.366 61.303 228.366H67.3942C67.6019 228.366 67.7702 228.215 67.7702 228.028V222.938C67.7702 222.751 67.6019 222.6 67.3942 222.6H61.303C61.0953 222.6 60.927 222.751 60.927 222.938Z" stroke="#263238" stroke-linecap="round" stroke-linejoin="round"/>
<path d="M60.927 206.18V211.27C60.927 211.457 61.0953 211.608 61.303 211.608H67.3942C67.6019 211.608 67.7702 211.457 67.7702 211.27V206.18C67.7702 205.993 67.6019 205.842 67.3942 205.842H61.303C61.0953 205.842 60.927 205.993 60.927 206.18Z" stroke="#263238" stroke-linecap="round" stroke-linejoin="round"/>
<path d="M60.927 197.804V202.895C60.927 203.081 61.0953 203.233 61.303 203.233H67.3942C67.6019 203.233 67.7702 203.081 67.7702 202.895V197.804C67.7702 197.618 67.6019 197.466 67.3942 197.466H61.303C61.0953 197.466 60.927 197.618 60.927 197.804Z" stroke="#263238" stroke-linecap="round" stroke-linejoin="round"/>
<path d="M71.7107 222.931V228.022C71.7107 228.208 71.879 228.36 72.0867 228.36H78.1779C78.3856 228.36 78.5539 228.208 78.5539 228.022V222.931C78.5539 222.745 78.3856 222.593 78.1779 222.593H72.0867C71.879 222.593 71.7107 222.745 71.7107 222.931Z" stroke="#263238" stroke-linecap="round" stroke-linejoin="round"/>
<path d="M71.7107 206.173V211.264C71.7107 211.45 71.879 211.602 72.0867 211.602H78.1779C78.3856 211.602 78.5539 211.45 78.5539 211.264V206.173C78.5539 205.987 78.3856 205.835 78.1779 205.835H72.0867C71.879 205.835 71.7107 205.987 71.7107 206.173Z" stroke="#263238" stroke-linecap="round" stroke-linejoin="round"/>
<path d="M323.646 282.534V286.469C323.646 286.655 323.814 286.807 324.022 286.807H328.744C328.952 286.807 329.12 286.655 329.12 286.469V282.534C329.12 282.348 328.952 282.196 328.744 282.196H324.022C323.814 282.196 323.646 282.348 323.646 282.534Z" stroke="#263238" stroke-linecap="round" stroke-linejoin="round"/>
<path d="M323.646 275.842V279.776C323.646 279.963 323.814 280.114 324.022 280.114H328.744C328.952 280.114 329.12 279.963 329.12 279.776V275.842C329.12 275.655 328.952 275.504 328.744 275.504H324.022C323.814 275.504 323.646 275.655 323.646 275.842Z" stroke="#263238" stroke-linecap="round" stroke-linejoin="round"/>
<path d="M323.646 255.751V259.685C323.646 259.872 323.814 260.023 324.022 260.023H328.744C328.952 260.023 329.12 259.872 329.12 259.685V255.751C329.12 255.564 328.952 255.413 328.744 255.413H324.022C323.814 255.413 323.646 255.564 323.646 255.751Z" stroke="#263238" stroke-linecap="round" stroke-linejoin="round"/>
<path d="M306.402 282.541V286.475C306.402 286.662 306.571 286.813 306.778 286.813H311.501C311.709 286.813 311.877 286.662 311.877 286.475V282.541C311.877 282.354 311.709 282.203 311.501 282.203H306.778C306.571 282.203 306.402 282.354 306.402 282.541Z" stroke="#263238" stroke-linecap="round" stroke-linejoin="round"/>
<path d="M306.402 269.143V273.077C306.402 273.264 306.571 273.415 306.778 273.415H311.501C311.709 273.415 311.877 273.264 311.877 273.077V269.143C311.877 268.956 311.709 268.805 311.501 268.805H306.778C306.571 268.805 306.402 268.956 306.402 269.143Z" stroke="#263238" stroke-linecap="round" stroke-linejoin="round"/>
<path d="M323.646 262.443V266.378C323.646 266.564 323.814 266.716 324.022 266.716H328.744C328.952 266.716 329.12 266.564 329.12 266.378V262.443C329.12 262.257 328.952 262.105 328.744 262.105H324.022C323.814 262.105 323.646 262.257 323.646 262.443Z" stroke="#263238" stroke-linecap="round" stroke-linejoin="round"/>
<path d="M315.02 275.842V279.776C315.02 279.963 315.189 280.114 315.396 280.114H320.119C320.327 280.114 320.495 279.963 320.495 279.776V275.842C320.495 275.655 320.327 275.504 320.119 275.504H315.396C315.189 275.504 315.02 275.655 315.02 275.842Z" stroke="#263238" stroke-linecap="round" stroke-linejoin="round"/>
<path d="M315.02 255.751V259.685C315.02 259.872 315.189 260.023 315.396 260.023H320.119C320.327 260.023 320.495 259.872 320.495 259.685V255.751C320.495 255.564 320.327 255.413 320.119 255.413H315.396C315.189 255.413 315.02 255.564 315.02 255.751Z" stroke="#263238" stroke-linecap="round" stroke-linejoin="round"/>
<path d="M306.402 249.052V252.986C306.402 253.173 306.571 253.324 306.778 253.324H311.501C311.709 253.324 311.877 253.173 311.877 252.986V249.052C311.877 248.865 311.709 248.714 311.501 248.714H306.778C306.571 248.714 306.402 248.865 306.402 249.052Z" stroke="#263238" stroke-linecap="round" stroke-linejoin="round"/>
<path d="M48.3837 65.6193C48.3837 65.6193 47.9099 51.9776 62.6717 50.166C77.8621 48.307 80.1482 63.0438 80.1482 63.0438" stroke="#263238" stroke-linecap="round" stroke-linejoin="round"/>
<path d="M41.2246 66.5927C42.1773 66.2954 43.1557 66.0693 44.1499 65.9167" stroke="#263238" stroke-linecap="round" stroke-linejoin="round"/>
<path d="M31.772 80.2007C31.772 72.8593 35.3816 69.1954 39.2393 67.3567" stroke="#263238" stroke-linecap="round" stroke-linejoin="round"/>
<path d="M77.8997 93.6869C66.5294 93.6869 35.9381 98.1214 32.1555 83.4049" stroke="#263238" stroke-linecap="round" stroke-linejoin="round"/>
<path d="M85.1865 93.8826L83.1335 93.8085" stroke="#263238" stroke-linecap="round" stroke-linejoin="round"/>
<path d="M105.686 76.9288C109.98 76.8274 117.147 77.767 117.147 85.1895C117.147 94.5047 100.144 94.4101 87.1718 93.9775" stroke="#263238" stroke-linecap="round" stroke-linejoin="round"/>
<path d="M83.8705 62.0229C90.9694 60.4411 105.596 59.2378 102.535 77.2059" stroke="#263238" stroke-linecap="round" stroke-linejoin="round"/>
<path d="M268.84 77.402C268.84 77.402 268.554 69.2021 277.458 68.1137C286.587 66.9916 287.986 75.8539 287.986 75.8539" stroke="#263238" stroke-linecap="round" stroke-linejoin="round"/>
<path d="M264.531 77.9902C265.104 77.8084 265.693 77.6683 266.291 77.571" stroke="#263238" stroke-linecap="round" stroke-linejoin="round"/>
<path d="M258.846 86.1765C258.846 81.7623 261.019 79.5585 263.358 78.4634" stroke="#263238" stroke-linecap="round" stroke-linejoin="round"/>
<path d="M286.587 94.2884C279.752 94.2884 261.35 96.9519 259.079 88.103" stroke="#263238" stroke-linecap="round" stroke-linejoin="round"/>
<path d="M290.971 94.4034L289.738 94.3561" stroke="#263238" stroke-linecap="round" stroke-linejoin="round"/>
<path d="M303.297 84.2093C305.884 84.1417 310.192 84.7096 310.192 89.1779C310.192 94.7752 299.965 94.7211 292.144 94.444" stroke="#263238" stroke-linecap="round" stroke-linejoin="round"/>
<path d="M290.182 75.2456C294.446 74.2924 303.244 73.5691 301.402 84.3716" stroke="#263238" stroke-linecap="round" stroke-linejoin="round"/>
<path d="M204.988 215.935C193.557 215.935 184.285 186.062 184.285 149.22C184.285 112.378 193.557 82.472 204.988 82.472H242.189C253.62 82.472 262.884 112.344 262.884 149.193C262.884 186.042 253.62 215.908 242.189 215.908L204.988 215.935Z" fill="#23367D"/>
<mask id="mask0_0_1292" style="mask-type:luminance" maskUnits="userSpaceOnUse" x="184" y="82" width="79" height="134">
<path d="M204.988 215.935C193.557 215.935 184.285 186.062 184.285 149.22C184.285 112.378 193.557 82.472 204.988 82.472H242.189C253.62 82.472 262.884 112.344 262.884 149.193C262.884 186.042 253.62 215.908 242.189 215.908L204.988 215.935Z" fill="white"/>
</mask>
<g mask="url(#mask0_0_1292)">
<g opacity="0.2">
<path d="M242.558 82.472C231.127 82.472 221.863 112.344 221.863 149.193C221.863 186.042 231.127 215.908 242.558 215.908C253.988 215.908 263.26 186.035 263.26 149.193C263.26 112.351 253.988 82.472 242.558 82.472Z" fill="black"/>
</g>
</g>
<path d="M204.988 215.935C193.557 215.935 184.285 186.062 184.285 149.22C184.285 112.378 193.557 82.472 204.988 82.472H242.189C253.62 82.472 262.884 112.344 262.884 149.193C262.884 186.042 253.62 215.908 242.189 215.908L204.988 215.935Z" fill="#96AFB4" stroke="#263238" stroke-linecap="round" stroke-linejoin="round"/>
<path d="M242.189 215.941C253.619 215.941 262.884 186.069 262.884 149.22C262.884 112.371 253.619 82.499 242.189 82.499C230.76 82.499 221.494 112.371 221.494 149.22C221.494 186.069 230.76 215.941 242.189 215.941Z" stroke="#263238" stroke-linecap="round" stroke-linejoin="round"/>
<path d="M242.189 82.472C230.759 82.472 221.487 112.344 221.487 149.193C221.487 186.042 230.759 215.908 242.189 215.908C253.62 215.908 262.884 186.035 262.884 149.193C262.884 112.351 253.62 82.472 242.189 82.472ZM242.144 212.94C239.377 212.94 234.737 208.438 230.781 195.763C226.969 183.541 224.871 167.236 224.871 149.856C224.871 111.324 235.105 86.7714 242.167 86.7714C244.941 86.7714 249.574 91.2668 253.529 103.942C257.342 116.164 259.44 132.469 259.44 149.856C259.38 188.354 249.153 212.94 242.144 212.94Z" stroke="#263238" stroke-linecap="round" stroke-linejoin="round"/>
<g opacity="0.7">
<path d="M207.056 99.8655C207.056 100.36 206.892 100.844 206.587 101.255C206.281 101.666 205.846 101.987 205.338 102.176C204.83 102.366 204.27 102.415 203.73 102.319C203.191 102.222 202.695 101.984 202.306 101.634C201.917 101.284 201.652 100.839 201.544 100.353C201.437 99.8682 201.492 99.3653 201.703 98.9083C201.913 98.4513 202.27 98.0606 202.727 97.7858C203.185 97.511 203.723 97.3643 204.273 97.3643C205.011 97.3643 205.719 97.6278 206.241 98.0968C206.763 98.5659 207.056 99.2021 207.056 99.8655Z" fill="white"/>
<path d="M219.712 99.8655C219.712 100.36 219.549 100.844 219.243 101.255C218.937 101.666 218.503 101.987 217.994 102.176C217.486 102.366 216.926 102.415 216.387 102.319C215.847 102.222 215.351 101.984 214.962 101.634C214.573 101.284 214.308 100.839 214.201 100.353C214.093 99.8682 214.148 99.3653 214.359 98.9083C214.569 98.4513 214.926 98.0606 215.384 97.7858C215.841 97.511 216.379 97.3643 216.929 97.3643C217.667 97.3643 218.375 97.6278 218.897 98.0968C219.419 98.5659 219.712 99.2021 219.712 99.8655Z" fill="white"/>
<path d="M199.054 107.599C199.056 108.096 198.893 108.581 198.587 108.995C198.281 109.408 197.846 109.731 197.336 109.921C196.825 110.112 196.264 110.162 195.722 110.066C195.18 109.969 194.682 109.73 194.292 109.379C193.901 109.028 193.635 108.58 193.528 108.093C193.42 107.606 193.476 107.101 193.688 106.643C193.9 106.184 194.259 105.793 194.719 105.518C195.179 105.243 195.72 105.096 196.272 105.098C197.01 105.098 197.718 105.361 198.239 105.83C198.761 106.299 199.054 106.936 199.054 107.599Z" fill="white"/>
<path d="M210.041 107.599C210.041 108.094 209.878 108.577 209.572 108.989C209.266 109.4 208.832 109.72 208.323 109.91C207.815 110.099 207.256 110.149 206.716 110.052C206.176 109.956 205.68 109.717 205.291 109.368C204.902 109.018 204.637 108.572 204.53 108.087C204.422 107.602 204.478 107.099 204.688 106.642C204.899 106.185 205.255 105.794 205.713 105.519C206.17 105.244 206.708 105.098 207.259 105.098C207.997 105.098 208.704 105.361 209.226 105.83C209.748 106.299 210.041 106.936 210.041 107.599Z" fill="white"/>
<path d="M221.028 107.599C221.028 108.094 220.865 108.577 220.559 108.989C220.253 109.4 219.819 109.72 219.31 109.91C218.802 110.099 218.242 110.149 217.703 110.052C217.163 109.956 216.667 109.717 216.278 109.368C215.889 109.018 215.624 108.572 215.516 108.087C215.409 107.602 215.464 107.099 215.675 106.642C215.885 106.185 216.242 105.794 216.7 105.519C217.157 105.244 217.695 105.098 218.245 105.098C218.983 105.098 219.691 105.361 220.213 105.83C220.735 106.299 221.028 106.936 221.028 107.599Z" fill="white"/>
<path d="M205.386 92.1321C205.388 92.6284 205.225 93.1139 204.92 93.5272C204.614 93.9406 204.179 94.2631 203.669 94.4539C203.16 94.6448 202.598 94.6954 202.057 94.5994C201.515 94.5034 201.017 94.2651 200.626 93.9146C200.235 93.5641 199.969 93.1173 199.861 92.6306C199.752 92.1439 199.807 91.6393 200.018 91.1806C200.229 90.722 200.587 90.3299 201.046 90.054C201.504 89.7781 202.044 89.6309 202.596 89.6309C203.335 89.6309 204.043 89.8942 204.566 90.363C205.089 90.8319 205.384 91.4681 205.386 92.1321Z" fill="white"/>
<path d="M216.373 92.1321C216.374 92.6287 216.212 93.1145 215.906 93.528C215.6 93.9414 215.164 94.2639 214.654 94.4546C214.144 94.6452 213.582 94.6955 213.041 94.5989C212.499 94.5024 212.001 94.2634 211.61 93.9122C211.22 93.5611 210.954 93.1136 210.846 92.6264C210.739 92.1393 210.795 91.6345 211.007 91.176C211.219 90.7174 211.578 90.3258 212.038 90.0507C212.498 89.7757 213.038 89.6295 213.591 89.6309C214.328 89.6309 215.036 89.8944 215.558 90.3635C216.08 90.8325 216.373 91.4687 216.373 92.1321Z" fill="white"/>
<path d="M227.36 92.1321C227.36 92.6267 227.196 93.1103 226.891 93.5217C226.585 93.933 226.15 94.2536 225.642 94.4429C225.134 94.6322 224.574 94.6817 224.034 94.5852C223.495 94.4887 222.999 94.2505 222.61 93.9007C222.221 93.5509 221.956 93.1052 221.848 92.62C221.741 92.1348 221.796 91.6319 222.007 91.1749C222.217 90.7179 222.574 90.3272 223.031 90.0524C223.489 89.7776 224.027 89.6309 224.577 89.6309C225.315 89.6309 226.023 89.8944 226.545 90.3634C227.067 90.8325 227.36 91.4687 227.36 92.1321Z" fill="white"/>
</g>
<g opacity="0.7">
<path d="M213.794 198.568C213.8 199.062 213.968 199.543 214.277 199.95C214.586 200.358 215.023 200.675 215.532 200.86C216.041 201.045 216.599 201.091 217.137 200.991C217.675 200.892 218.168 200.651 218.554 200.3C218.94 199.949 219.202 199.504 219.307 199.019C219.412 198.535 219.355 198.033 219.144 197.578C218.932 197.122 218.576 196.733 218.119 196.46C217.662 196.186 217.125 196.04 216.576 196.04C216.208 196.039 215.843 196.104 215.503 196.231C215.163 196.358 214.855 196.545 214.596 196.78C214.337 197.015 214.132 197.295 213.995 197.602C213.857 197.909 213.789 198.237 213.794 198.568Z" fill="white"/>
<path d="M201.965 198.568C201.963 199.065 202.126 199.551 202.432 199.964C202.738 200.378 203.173 200.7 203.683 200.891C204.194 201.082 204.755 201.132 205.297 201.035C205.839 200.939 206.337 200.7 206.727 200.348C207.118 199.997 207.384 199.55 207.491 199.063C207.599 198.576 207.543 198.071 207.331 197.612C207.119 197.154 206.76 196.762 206.3 196.487C205.84 196.212 205.299 196.066 204.747 196.067C204.009 196.067 203.301 196.331 202.78 196.8C202.258 197.269 201.965 197.905 201.965 198.568Z" fill="white"/>
<path d="M221.795 206.302C221.795 206.796 221.958 207.28 222.264 207.691C222.57 208.103 223.004 208.423 223.513 208.613C224.021 208.802 224.58 208.851 225.12 208.755C225.66 208.658 226.156 208.42 226.545 208.07C226.934 207.721 227.199 207.275 227.306 206.79C227.414 206.305 227.359 205.802 227.148 205.345C226.937 204.888 226.581 204.497 226.123 204.222C225.666 203.947 225.128 203.801 224.577 203.801C224.212 203.8 223.849 203.864 223.511 203.989C223.173 204.115 222.866 204.299 222.608 204.531C222.349 204.764 222.144 205.04 222.005 205.344C221.865 205.647 221.794 205.973 221.795 206.302Z" fill="white"/>
<path d="M210.801 206.302C210.799 206.798 210.962 207.284 211.267 207.697C211.573 208.11 212.008 208.433 212.518 208.624C213.027 208.814 213.589 208.865 214.13 208.769C214.672 208.673 215.17 208.435 215.561 208.084C215.952 207.734 216.218 207.287 216.326 206.8C216.435 206.314 216.38 205.809 216.169 205.35C215.958 204.892 215.6 204.5 215.141 204.224C214.682 203.948 214.143 203.801 213.591 203.801C213.225 203.8 212.862 203.864 212.524 203.989C212.185 204.114 211.877 204.298 211.618 204.531C211.359 204.763 211.154 205.039 211.013 205.343C210.873 205.647 210.801 205.973 210.801 206.302Z" fill="white"/>
<path d="M199.814 206.302C199.812 206.798 199.975 207.284 200.281 207.698C200.587 208.111 201.023 208.434 201.533 208.624C202.043 208.815 202.604 208.865 203.146 208.769C203.688 208.672 204.186 208.433 204.577 208.082C204.967 207.731 205.233 207.283 205.341 206.796C205.448 206.309 205.392 205.804 205.18 205.346C204.968 204.887 204.609 204.495 204.149 204.22C203.689 203.945 203.149 203.799 202.596 203.801C201.858 203.801 201.151 204.064 200.629 204.533C200.107 205.002 199.814 205.638 199.814 206.302Z" fill="white"/>
<path d="M215.463 190.835C215.463 191.33 215.626 191.813 215.932 192.224C216.238 192.636 216.672 192.956 217.181 193.146C217.689 193.335 218.249 193.385 218.788 193.288C219.328 193.191 219.824 192.953 220.213 192.603C220.602 192.254 220.867 191.808 220.974 191.323C221.082 190.838 221.027 190.335 220.816 189.878C220.606 189.421 220.249 189.03 219.791 188.755C219.334 188.48 218.796 188.334 218.245 188.334C217.508 188.334 216.8 188.597 216.278 189.066C215.756 189.535 215.463 190.172 215.463 190.835Z" fill="white"/>
<path d="M204.476 190.835C204.476 191.33 204.64 191.813 204.945 192.224C205.251 192.636 205.686 192.956 206.194 193.146C206.702 193.335 207.262 193.385 207.802 193.288C208.341 193.192 208.837 192.953 209.226 192.603C209.615 192.254 209.88 191.808 209.988 191.323C210.095 190.838 210.04 190.335 209.829 189.878C209.619 189.421 209.262 189.03 208.805 188.755C208.347 188.48 207.809 188.334 207.259 188.334C206.893 188.333 206.531 188.397 206.193 188.522C205.855 188.648 205.548 188.832 205.289 189.064C205.031 189.297 204.826 189.573 204.686 189.877C204.547 190.181 204.475 190.506 204.476 190.835Z" fill="white"/>
<path d="M193.482 190.835C193.481 191.331 193.643 191.817 193.949 192.23C194.254 192.643 194.69 192.966 195.199 193.157C195.709 193.348 196.27 193.398 196.812 193.302C197.353 193.206 197.851 192.968 198.242 192.617C198.633 192.267 198.9 191.82 199.008 191.333C199.116 190.847 199.061 190.342 198.85 189.883C198.639 189.425 198.282 189.033 197.823 188.757C197.364 188.481 196.824 188.334 196.272 188.334C195.906 188.333 195.543 188.397 195.205 188.522C194.867 188.647 194.559 188.832 194.3 189.064C194.041 189.296 193.835 189.572 193.695 189.876C193.554 190.18 193.482 190.506 193.482 190.835Z" fill="white"/>
</g>
<path d="M240.783 157.799C246.053 157.799 250.326 153.958 250.326 149.22C250.326 144.483 246.053 140.642 240.783 140.642C235.513 140.642 231.24 144.483 231.24 149.22C231.24 153.958 235.513 157.799 240.783 157.799Z" fill="#999999"/>
<path d="M259.38 149.22C259.378 145.593 258.065 142.064 255.637 139.166C253.209 136.268 249.799 134.158 245.921 133.155C242.043 132.151 237.907 132.309 234.137 133.603C230.367 134.898 227.168 137.259 225.021 140.331" stroke="#263238" stroke-linecap="round" stroke-linejoin="round"/>
<path d="M223.682 114.92H204.416V183.534H223.682C228.469 183.534 233.06 181.825 236.444 178.782C239.829 175.74 241.73 171.613 241.73 167.31V131.144C241.73 126.841 239.829 122.715 236.444 119.672C233.06 116.629 228.469 114.92 223.682 114.92Z" fill="#96AFB4" stroke="#263238" stroke-linecap="round" stroke-linejoin="round"/>
<path d="M220.479 114.9H188.353C179.374 114.9 172.095 121.443 172.095 129.515V168.926C172.095 176.997 179.374 183.541 188.353 183.541H220.479C229.458 183.541 236.737 176.997 236.737 168.926V129.515C236.737 121.443 229.458 114.9 220.479 114.9Z" fill="#999999" stroke="#263238" stroke-linecap="round" stroke-linejoin="round"/>
<path d="M220.855 121.504H187.977C183.264 121.504 179.442 124.939 179.442 129.177V169.264C179.442 173.501 183.264 176.936 187.977 176.936H220.855C225.569 176.936 229.39 173.501 229.39 169.264V129.177C229.39 124.939 225.569 121.504 220.855 121.504Z" fill="#263238" stroke="#263238" stroke-linecap="round" stroke-linejoin="round"/>
<path d="M238.82 155.926C237.67 155.926 236.737 152.925 236.737 149.22C236.737 145.516 237.67 142.508 238.82 142.508H242.58C243.731 142.508 244.663 145.516 244.663 149.22C244.663 152.925 243.731 155.926 242.58 155.926H238.82Z" fill="#757575" stroke="#263238" stroke-linecap="round" stroke-linejoin="round"/>
<path d="M242.558 155.926C243.708 155.926 244.641 152.924 244.641 149.22C244.641 145.517 243.708 142.514 242.558 142.514C241.407 142.514 240.475 145.517 240.475 149.22C240.475 152.924 241.407 155.926 242.558 155.926Z" fill="#96AFB4" stroke="#263238" stroke-linecap="round" stroke-linejoin="round"/>
<path d="M186.128 132.097H184.24V130.928C185.789 130.928 186.346 130.624 186.759 129.576H188V140.101H186.158L186.128 132.097Z" fill="white"/>
<path d="M190.106 137.627V132.097C190.106 130.414 191.098 129.454 192.903 129.454C194.708 129.454 195.693 130.414 195.693 132.097V137.627C195.693 139.317 194.708 140.277 192.903 140.277C191.098 140.277 190.106 139.317 190.106 137.627ZM193.866 137.735V131.996C193.866 131.239 193.497 130.955 192.918 130.955C192.339 130.955 191.963 131.239 191.963 131.996V137.735C191.963 138.485 192.332 138.769 192.918 138.769C193.505 138.769 193.851 138.485 193.851 137.735H193.866Z" fill="white"/>
<path d="M196.926 132.807H198.701V134.396H196.926V132.807ZM196.926 138.533H198.701V140.128H196.926V138.533Z" fill="white"/>
<path d="M199.934 137.627V132.097C199.934 130.414 200.927 129.454 202.732 129.454C204.537 129.454 205.522 130.414 205.522 132.097V137.627C205.522 139.317 204.537 140.277 202.732 140.277C200.927 140.277 199.934 139.317 199.934 137.627ZM203.694 137.735V131.996C203.694 131.239 203.333 130.955 202.747 130.955C202.16 130.955 201.792 131.239 201.792 131.996V137.735C201.792 138.485 202.16 138.769 202.747 138.769C203.333 138.769 203.679 138.485 203.679 137.735H203.694Z" fill="white"/>
<path d="M206.71 137.627V136.802H208.447V137.749C208.447 138.499 208.815 138.769 209.402 138.769C209.988 138.769 210.357 138.499 210.357 137.749V135.389C210.357 134.639 209.988 134.355 209.402 134.355C208.815 134.355 208.447 134.639 208.447 135.389V135.477H206.71L207.041 129.603H211.891V131.104H208.68L208.53 133.618H208.567C208.726 133.37 208.958 133.166 209.239 133.03C209.519 132.894 209.836 132.831 210.154 132.848C211.508 132.848 212.192 133.706 212.192 135.254V137.627C212.192 139.317 211.259 140.277 209.447 140.277C207.635 140.277 206.71 139.317 206.71 137.627Z" fill="white"/>
<path d="M184.827 147.638H183.669V146.962C184.601 146.962 184.932 146.78 185.173 146.165H185.925V152.479H184.827V147.638Z" fill="white"/>
<path d="M187.165 150.978V150.424C187.132 150.165 187.187 149.904 187.321 149.674C187.455 149.444 187.663 149.255 187.917 149.132C187.682 149.007 187.493 148.822 187.373 148.601C187.252 148.38 187.206 148.133 187.24 147.889V147.632C187.24 147.23 187.418 146.845 187.734 146.561C188.05 146.277 188.478 146.117 188.925 146.117C189.372 146.117 189.8 146.277 190.116 146.561C190.432 146.845 190.609 147.23 190.609 147.632V147.889C190.641 148.133 190.593 148.381 190.472 148.601C190.35 148.822 190.16 149.006 189.925 149.132C190.179 149.256 190.386 149.445 190.52 149.675C190.654 149.905 190.709 150.166 190.677 150.424V150.978C190.677 151.388 190.496 151.782 190.173 152.073C189.85 152.363 189.412 152.526 188.955 152.526C188.498 152.526 188.06 152.363 187.737 152.073C187.414 151.782 187.233 151.388 187.233 150.978H187.165ZM189.512 150.924V150.322C189.512 149.842 189.301 149.612 188.887 149.612C188.474 149.612 188.263 149.842 188.263 150.322V150.924C188.263 151.404 188.474 151.634 188.887 151.634C189.301 151.634 189.504 151.424 189.504 150.924H189.512ZM189.466 148.078V147.584C189.466 147.165 189.263 146.949 188.887 146.949C188.511 146.949 188.301 147.165 188.301 147.584V148.078C188.301 148.49 188.504 148.707 188.887 148.707C189.271 148.707 189.504 148.49 189.504 148.078H189.466Z" fill="white"/>
<path d="M193.46 147.044H191.204V146.138H194.512V147.003L192.79 152.452H191.662L193.46 147.044Z" fill="white"/>
<path d="M197.355 147.49H198.348L199.1 151.694H198.348L198.212 150.863H197.377L197.242 151.681H196.558L197.355 147.49ZM198.152 150.302L197.829 148.227L197.505 150.302H198.152Z" fill="white"/>
<path d="M199.408 150.748V148.49C199.408 148.232 199.522 147.984 199.725 147.802C199.928 147.619 200.204 147.517 200.491 147.517C200.778 147.517 201.053 147.619 201.256 147.802C201.46 147.984 201.574 148.232 201.574 148.49V148.936H200.874V148.45C200.874 148.173 200.731 148.058 200.506 148.058C200.28 148.058 200.137 148.173 200.137 148.45V150.748C200.137 151.025 200.288 151.133 200.506 151.133C200.724 151.133 200.874 151.025 200.874 150.748V150.106H201.574V150.748C201.574 151.006 201.46 151.254 201.256 151.436C201.053 151.619 200.778 151.722 200.491 151.722C200.204 151.722 199.928 151.619 199.725 151.436C199.522 151.254 199.408 151.006 199.408 150.748Z" fill="white"/>
<path d="M202.589 148.091H201.837V147.49H204.093V148.091H203.341V151.694H202.589V148.091Z" fill="white"/>
<path d="M204.446 147.49H205.198V151.694H204.446V147.49Z" fill="white"/>
<path d="M205.537 147.49H206.289L206.8 150.748L207.281 147.483H207.951L207.244 151.688H206.266L205.537 147.49Z" fill="white"/>
<path d="M208.304 147.49H210.304V148.091H209.056V149.2H210.071V149.802H209.056V151.093H210.327V151.694H208.304V147.49Z" fill="white"/>
<path d="M211.741 150.748V148.49C211.741 148.232 211.855 147.984 212.058 147.802C212.261 147.619 212.536 147.517 212.824 147.517C213.111 147.517 213.386 147.619 213.589 147.802C213.792 147.984 213.906 148.232 213.906 148.49V148.936H213.207V148.45C213.207 148.173 213.064 148.058 212.839 148.058C212.613 148.058 212.47 148.173 212.47 148.45V150.748C212.47 151.025 212.62 151.133 212.839 151.133C213.057 151.133 213.207 151.025 213.207 150.748V150.106H213.906V150.748C213.906 151.006 213.792 151.254 213.589 151.436C213.386 151.619 213.111 151.722 212.824 151.722C212.536 151.722 212.261 151.619 212.058 151.436C211.855 151.254 211.741 151.006 211.741 150.748Z" fill="white"/>
<path d="M214.914 147.49H215.907L216.659 151.694H215.907L215.771 150.863H214.937L214.801 151.681H214.124L214.914 147.49ZM215.719 150.302L215.388 148.227L215.072 150.302H215.719Z" fill="white"/>
<path d="M217.027 147.49H217.779V151.093H218.99V151.694H217.027V147.49Z" fill="white"/>
<path d="M183.262 161.077C183.252 160.657 183.345 160.24 183.535 159.855C183.725 159.471 184.007 159.129 184.36 158.853C185.203 158.056 185.443 157.576 185.443 156.988C185.443 156.399 185.225 156.271 184.872 156.271C184.518 156.271 184.3 156.44 184.3 156.893V157.569H183.262V156.954C183.262 155.946 183.819 155.365 184.902 155.365C185.135 155.342 185.371 155.367 185.592 155.441C185.812 155.514 186.01 155.633 186.17 155.787C186.33 155.941 186.448 156.127 186.513 156.33C186.579 156.533 186.591 156.746 186.549 156.954C186.549 157.704 186.21 158.367 185.188 159.34C184.526 159.975 184.353 160.286 184.353 160.692V160.888H186.451V161.787H183.262V161.077Z" fill="white"/>
<path d="M187.248 160.273V156.954C187.233 156.748 187.265 156.541 187.342 156.347C187.419 156.152 187.54 155.974 187.696 155.823C187.853 155.672 188.043 155.552 188.254 155.47C188.464 155.388 188.692 155.345 188.921 155.345C189.151 155.345 189.378 155.388 189.589 155.47C189.8 155.552 189.989 155.672 190.146 155.823C190.303 155.974 190.424 156.152 190.501 156.347C190.578 156.541 190.61 156.748 190.594 156.954V160.273C190.61 160.479 190.578 160.686 190.501 160.88C190.424 161.074 190.303 161.253 190.146 161.403C189.989 161.554 189.8 161.674 189.589 161.757C189.378 161.839 189.151 161.881 188.921 161.881C188.692 161.881 188.464 161.839 188.254 161.757C188.043 161.674 187.853 161.554 187.696 161.403C187.54 161.253 187.419 161.074 187.342 160.88C187.265 160.686 187.233 160.479 187.248 160.273ZM189.504 160.334V156.893C189.504 156.44 189.278 156.271 188.933 156.271C188.587 156.271 188.361 156.44 188.361 156.893V160.334C188.361 160.787 188.579 160.956 188.933 160.956C189.286 160.956 189.459 160.787 189.459 160.334H189.504Z" fill="white"/>
<path d="M193.151 160.624H191.046V159.719L193.046 155.46H194.249V159.719H194.776V160.624H194.249V161.767H193.151V160.624ZM193.151 159.719V157.258L192.068 159.719H193.151Z" fill="white"/>
<path d="M197.362 157.407H196.61V156.832H198.866V157.427H198.114V161.037H197.362V157.407Z" fill="white"/>
<path d="M199.137 160.016V157.806C199.137 157.537 199.256 157.279 199.468 157.088C199.679 156.898 199.966 156.792 200.265 156.792C200.564 156.792 200.851 156.898 201.063 157.088C201.274 157.279 201.393 157.537 201.393 157.806V160.016C201.393 160.285 201.274 160.543 201.063 160.733C200.851 160.923 200.564 161.03 200.265 161.03C199.966 161.03 199.679 160.923 199.468 160.733C199.256 160.543 199.137 160.285 199.137 160.016ZM200.641 160.057V157.765C200.641 157.461 200.498 157.353 200.265 157.353C200.032 157.353 199.882 157.461 199.882 157.765V160.057C199.882 160.361 200.025 160.476 200.265 160.476C200.506 160.476 200.634 160.361 200.634 160.057H200.641Z" fill="white"/>
<path d="M202.416 157.407H201.664V156.832H203.92V157.427H203.168V161.037H202.416V157.407Z" fill="white"/>
<path d="M204.544 156.832H205.537L206.289 161.037H205.537L205.401 160.199H204.567L204.431 161.023H203.792L204.544 156.832ZM205.341 159.637L205.018 157.562L204.694 159.637H205.341Z" fill="white"/>
<path d="M206.65 156.832H207.402V160.435H208.605V161.037H206.65V156.832Z" fill="white"/>
<path d="M209.973 160.043V157.778C209.973 157.52 210.088 157.273 210.291 157.09C210.494 156.908 210.769 156.805 211.056 156.805C211.344 156.805 211.619 156.908 211.822 157.09C212.025 157.273 212.139 157.52 212.139 157.778V158.225H211.44V157.738C211.44 157.461 211.297 157.353 211.071 157.353C210.846 157.353 210.71 157.461 210.71 157.738V160.09C210.71 160.368 210.853 160.476 211.071 160.476C211.289 160.476 211.44 160.368 211.44 160.09V159.448H212.139V160.043C212.139 160.301 212.025 160.549 211.822 160.731C211.619 160.914 211.344 161.016 211.056 161.016C210.769 161.016 210.494 160.914 210.291 160.731C210.088 160.549 209.973 160.301 209.973 160.043Z" fill="white"/>
<path d="M213.147 156.832H214.147L214.899 161.037H214.147L214.012 160.199H213.177L213.042 161.023H212.365L213.147 156.832ZM213.952 159.637L213.621 157.562L213.297 159.637H213.952Z" fill="white"/>
<path d="M215.26 156.832H216.012V160.435H217.223V161.037H215.275L215.26 156.832Z" fill="white"/>
<path d="M185.127 169.94H183.022V169.041L185.022 164.775H186.225V169.041H186.752V169.94H186.225V171.082H185.127V169.94ZM185.127 169.041V166.58L184.045 169.041H185.127Z" fill="white"/>
<path d="M187.248 169.588V166.296C187.233 166.09 187.265 165.883 187.342 165.689C187.419 165.494 187.54 165.316 187.696 165.166C187.853 165.015 188.043 164.894 188.254 164.812C188.464 164.73 188.692 164.688 188.921 164.688C189.151 164.688 189.378 164.73 189.589 164.812C189.8 164.894 189.989 165.015 190.146 165.166C190.303 165.316 190.424 165.494 190.501 165.689C190.578 165.883 190.61 166.09 190.594 166.296V169.615C190.61 169.821 190.578 170.028 190.501 170.222C190.424 170.417 190.303 170.595 190.146 170.746C189.989 170.897 189.8 171.017 189.589 171.099C189.378 171.181 189.151 171.224 188.921 171.224C188.692 171.224 188.464 171.181 188.254 171.099C188.043 171.017 187.853 170.897 187.696 170.746C187.54 170.595 187.419 170.417 187.342 170.222C187.265 170.028 187.233 169.821 187.248 169.615V169.588ZM189.504 169.649V166.208C189.504 165.755 189.278 165.586 188.933 165.586C188.587 165.586 188.361 165.755 188.361 166.208V169.676C188.361 170.129 188.579 170.298 188.933 170.298C189.286 170.298 189.459 170.102 189.459 169.676L189.504 169.649Z" fill="white"/>
<path d="M192.775 166.127H193.527V169.73H194.738V170.352H192.798L192.775 166.127Z" fill="white"/>
<path d="M195.67 166.127H196.663L197.415 170.332H196.663L196.528 169.494H195.693L195.558 170.318H194.873L195.67 166.127ZM196.468 168.939L196.144 166.857L195.821 168.939H196.468Z" fill="white"/>
<path d="M197.776 166.127H198.859C199.611 166.127 199.949 166.492 199.949 167.168V167.58C199.949 168.256 199.588 168.622 198.859 168.622H198.528V170.352H197.776V166.127ZM198.859 168.02C199.092 168.02 199.22 167.925 199.22 167.621V167.121C199.22 166.823 199.092 166.729 198.859 166.729H198.528V168.02H198.859Z" fill="white"/>
<path d="M200.258 169.338V169.095H200.957V169.385C200.957 169.683 201.1 169.791 201.34 169.791C201.581 169.791 201.716 169.683 201.716 169.372C201.716 169.061 201.574 168.797 201.092 168.419C200.849 168.276 200.648 168.084 200.505 167.857C200.362 167.629 200.283 167.375 200.273 167.114C200.251 166.977 200.263 166.837 200.31 166.705C200.356 166.574 200.435 166.453 200.54 166.352C200.646 166.251 200.775 166.173 200.919 166.124C201.063 166.074 201.217 166.055 201.371 166.066C202.123 166.066 202.438 166.452 202.438 167.121V167.297H201.747V167.08C201.747 166.783 201.611 166.668 201.378 166.668C201.145 166.668 201.01 166.783 201.01 167.067C201.01 167.351 201.16 167.601 201.641 167.979C201.89 168.127 202.095 168.327 202.237 168.563C202.378 168.799 202.453 169.063 202.453 169.331C202.477 169.471 202.465 169.613 202.418 169.747C202.371 169.882 202.292 170.005 202.185 170.108C202.078 170.21 201.946 170.29 201.8 170.34C201.654 170.391 201.497 170.411 201.34 170.399C200.619 170.393 200.258 170.007 200.258 169.338Z" fill="white"/>
<path d="M220.336 132.834C220.1 132.836 219.867 132.889 219.659 132.99C219.741 132.795 219.784 132.589 219.787 132.381C219.787 131.908 219.578 131.454 219.206 131.119C218.833 130.785 218.328 130.596 217.802 130.596C217.275 130.596 216.77 130.785 216.398 131.119C216.026 131.454 215.816 131.908 215.816 132.381C215.816 132.596 215.859 132.809 215.944 133.01C215.73 132.897 215.486 132.836 215.237 132.834C215.038 132.821 214.837 132.845 214.648 132.905C214.459 132.965 214.286 133.059 214.139 133.182C213.992 133.305 213.875 133.453 213.795 133.619C213.715 133.784 213.674 133.962 213.674 134.142C213.674 134.322 213.715 134.5 213.795 134.666C213.875 134.831 213.992 134.979 214.139 135.102C214.286 135.225 214.459 135.319 214.648 135.379C214.837 135.439 215.038 135.463 215.237 135.45H220.336C220.704 135.426 221.048 135.278 221.299 135.036C221.551 134.793 221.69 134.474 221.69 134.142C221.69 133.811 221.551 133.491 221.299 133.249C221.048 133.006 220.704 132.858 220.336 132.834Z" stroke="white" stroke-linecap="round" stroke-linejoin="round"/>
<path d="M222.261 131.475C222.635 131.475 222.938 131.203 222.938 130.867C222.938 130.531 222.635 130.258 222.261 130.258C221.887 130.258 221.584 130.531 221.584 130.867C221.584 131.203 221.887 131.475 222.261 131.475Z" stroke="white" stroke-linecap="round" stroke-linejoin="round"/>
<path d="M222.261 132.084V132.8" stroke="white" stroke-linecap="round" stroke-linejoin="round"/>
<path d="M222.261 128.934V129.657" stroke="white" stroke-linecap="round" stroke-linejoin="round"/>
<path d="M220.908 130.867H220.11" stroke="white" stroke-linecap="round" stroke-linejoin="round"/>
<path d="M224.412 130.867H223.607" stroke="white" stroke-linecap="round" stroke-linejoin="round"/>
<path d="M221.306 131.725L220.742 132.232" stroke="white" stroke-linecap="round" stroke-linejoin="round"/>
<path d="M223.78 129.501L223.216 130.008" stroke="white" stroke-linecap="round" stroke-linejoin="round"/>
<path d="M221.306 130.008L220.742 129.501" stroke="white" stroke-linecap="round" stroke-linejoin="round"/>
<path d="M223.78 132.232L223.216 131.725" stroke="white" stroke-linecap="round" stroke-linejoin="round"/>
<path d="M297.378 121.085H270.133C268.259 121.089 266.462 121.76 265.137 122.953C263.812 124.145 263.067 125.761 263.065 127.446V145.57L254.244 149.551L263.065 151.661V160.658C263.067 162.343 263.812 163.959 265.137 165.152C266.462 166.344 268.259 167.016 270.133 167.019H297.378C299.255 167.018 301.053 166.347 302.38 165.154C303.707 163.962 304.453 162.345 304.455 160.658V127.446C304.453 125.76 303.707 124.143 302.38 122.95C301.053 121.758 299.255 121.087 297.378 121.085Z" fill="white" stroke="#263238" stroke-linecap="round" stroke-linejoin="round"/>
<path d="M289.783 153.763C289.783 154.833 289.43 155.878 288.769 156.767C288.108 157.657 287.169 158.35 286.069 158.759C284.97 159.169 283.761 159.276 282.594 159.067C281.427 158.858 280.355 158.343 279.513 157.587C278.672 156.831 278.099 155.867 277.867 154.818C277.635 153.769 277.754 152.682 278.209 151.693C278.664 150.705 279.436 149.861 280.425 149.266C281.414 148.672 282.577 148.355 283.767 148.355C285.363 148.355 286.893 148.925 288.021 149.939C289.149 150.953 289.783 152.329 289.783 153.763Z" fill="#96AFB4" stroke="#263238" stroke-linecap="round" stroke-linejoin="round"/>
<path d="M275.006 153.763C275.006 154.565 274.742 155.349 274.246 156.016C273.75 156.683 273.045 157.203 272.221 157.51C271.397 157.817 270.489 157.897 269.614 157.741C268.739 157.584 267.935 157.198 267.304 156.631C266.673 156.064 266.243 155.341 266.069 154.554C265.895 153.767 265.984 152.952 266.326 152.211C266.667 151.47 267.246 150.836 267.988 150.39C268.73 149.945 269.602 149.707 270.494 149.707C271.691 149.707 272.839 150.134 273.685 150.895C274.531 151.656 275.006 152.687 275.006 153.763Z" fill="#263238" stroke="#263238" stroke-linecap="round" stroke-linejoin="round"/>
<path d="M301.597 153.763C301.597 154.565 301.332 155.349 300.837 156.016C300.341 156.683 299.636 157.203 298.812 157.51C297.987 157.817 297.08 157.897 296.205 157.741C295.33 157.584 294.526 157.198 293.895 156.631C293.264 156.064 292.834 155.341 292.66 154.554C292.486 153.767 292.575 152.952 292.917 152.211C293.258 151.47 293.836 150.836 294.578 150.39C295.32 149.945 296.193 149.707 297.085 149.707C298.282 149.707 299.429 150.134 300.276 150.895C301.122 151.656 301.597 152.687 301.597 153.763Z" fill="#263238" stroke="#263238" stroke-linecap="round" stroke-linejoin="round"/>
<path d="M272.803 153.641C272.803 153.297 272.232 153.297 272.209 153.641C272.203 153.763 272.18 153.883 272.141 154C272.128 154.046 272.128 154.094 272.141 154.14C272.155 154.186 272.18 154.228 272.216 154.263C272.253 154.295 272.299 154.318 272.349 154.33C272.398 154.342 272.451 154.342 272.5 154.33C272.55 154.319 272.596 154.296 272.633 154.264C272.67 154.232 272.698 154.192 272.713 154.148C272.762 153.983 272.793 153.813 272.803 153.641Z" fill="white"/>
<path d="M270.555 151.661C270.743 151.691 270.914 151.78 271.036 151.912C271.159 152.045 271.225 152.212 271.224 152.384V153.317C271.225 153.349 271.238 153.38 271.261 153.405L271.48 153.601C271.498 153.618 271.523 153.631 271.55 153.636C271.577 153.641 271.604 153.638 271.63 153.629C271.655 153.619 271.676 153.603 271.691 153.582C271.706 153.562 271.713 153.537 271.713 153.513V152.397C271.719 152.108 271.605 151.827 271.394 151.608C271.183 151.39 270.889 151.249 270.57 151.214C270.381 151.196 270.189 151.215 270.01 151.271C269.83 151.327 269.667 151.419 269.532 151.539C269.508 151.56 269.49 151.584 269.477 151.612C269.464 151.639 269.458 151.668 269.458 151.698C269.458 151.727 269.464 151.757 269.477 151.784C269.49 151.811 269.508 151.836 269.532 151.857C269.578 151.897 269.64 151.92 269.705 151.92C269.769 151.92 269.831 151.897 269.878 151.857C269.964 151.776 270.071 151.716 270.189 151.682C270.307 151.648 270.432 151.641 270.555 151.661Z" fill="white"/>
<path d="M272.803 155.433L268.569 151.634C268.547 151.613 268.52 151.596 268.49 151.585C268.461 151.573 268.429 151.568 268.396 151.568C268.364 151.568 268.332 151.573 268.302 151.585C268.273 151.596 268.246 151.613 268.223 151.634C268.2 151.654 268.182 151.678 268.169 151.705C268.157 151.731 268.15 151.76 268.15 151.789C268.15 151.818 268.157 151.847 268.169 151.873C268.182 151.9 268.2 151.924 268.223 151.945L269.141 152.776V153.452C269.138 153.725 269.24 153.991 269.429 154.205C269.618 154.419 269.882 154.568 270.179 154.628C270.486 154.684 270.806 154.633 271.073 154.486L271.487 154.865C271.225 155.037 270.916 155.142 270.592 155.168C270.269 155.194 269.944 155.14 269.652 155.012C269.36 154.884 269.112 154.687 268.936 154.442C268.76 154.197 268.662 153.913 268.652 153.621C268.652 153.276 268.035 153.276 268.058 153.621C268.07 154.066 268.231 154.497 268.519 154.859C268.807 155.22 269.21 155.496 269.675 155.649V156.041C269.677 156.113 269.71 156.182 269.768 156.233C269.825 156.283 269.903 156.311 269.983 156.311H270.878C270.958 156.311 271.034 156.283 271.091 156.232C271.147 156.182 271.179 156.113 271.179 156.041V155.642C271.454 155.561 271.709 155.432 271.931 155.264L272.465 155.744C272.488 155.765 272.515 155.781 272.546 155.793C272.576 155.804 272.608 155.81 272.641 155.81C272.674 155.81 272.707 155.804 272.737 155.793C272.767 155.781 272.795 155.765 272.818 155.744C272.861 155.7 272.884 155.643 272.881 155.585C272.878 155.527 272.85 155.473 272.803 155.433ZM270.427 154.223C270.325 154.227 270.223 154.213 270.127 154.181C270.032 154.149 269.944 154.1 269.87 154.037C269.797 153.974 269.738 153.898 269.698 153.813C269.658 153.729 269.637 153.638 269.637 153.547V153.256L270.697 154.209C270.609 154.228 270.517 154.233 270.427 154.223Z" fill="white"/>
<path d="M286.993 153.337C285.489 152.384 282.286 152.384 280.646 153.337C280.356 153.388 280.093 153.524 279.897 153.723C279.702 153.922 279.584 154.174 279.564 154.439C279.526 155.061 282.383 155.061 282.414 154.439C282.422 154.195 282.337 153.957 282.173 153.763C283.244 153.56 284.35 153.56 285.422 153.763C285.236 153.951 285.122 154.188 285.098 154.439C285.061 155.061 287.918 155.061 287.948 154.439C287.966 154.182 287.879 153.928 287.703 153.725C287.527 153.523 287.275 153.384 286.993 153.337Z" fill="#263238"/>
<path d="M297.927 153.763C297.927 153.917 297.877 154.068 297.781 154.197C297.686 154.326 297.551 154.426 297.392 154.486C297.234 154.546 297.059 154.562 296.89 154.533C296.722 154.504 296.566 154.43 296.443 154.322C296.321 154.214 296.237 154.075 296.201 153.924C296.166 153.773 296.181 153.616 296.245 153.472C296.309 153.329 296.418 153.205 296.56 153.117C296.701 153.03 296.868 152.981 297.04 152.979C297.156 152.977 297.271 152.996 297.378 153.035C297.486 153.073 297.584 153.131 297.667 153.204C297.749 153.277 297.815 153.364 297.86 153.46C297.904 153.556 297.927 153.659 297.927 153.763Z" fill="white"/>
<path d="M300.409 153.763C300.409 153.918 300.358 154.07 300.262 154.199C300.166 154.328 300.03 154.428 299.87 154.487C299.711 154.547 299.536 154.562 299.366 154.532C299.197 154.502 299.042 154.427 298.92 154.317C298.798 154.208 298.715 154.068 298.681 153.916C298.647 153.764 298.665 153.606 298.731 153.463C298.797 153.32 298.909 153.197 299.052 153.111C299.195 153.025 299.364 152.979 299.537 152.979C299.768 152.979 299.99 153.061 300.153 153.208C300.317 153.355 300.409 153.555 300.409 153.763Z" fill="white"/>
<path d="M295.438 153.763C295.438 153.918 295.387 154.07 295.291 154.199C295.194 154.328 295.058 154.429 294.898 154.488C294.738 154.547 294.562 154.562 294.393 154.532C294.224 154.501 294.068 154.425 293.946 154.315C293.825 154.205 293.742 154.064 293.709 153.912C293.677 153.759 293.695 153.601 293.762 153.458C293.829 153.315 293.942 153.193 294.087 153.108C294.231 153.022 294.401 152.977 294.573 152.979C294.688 152.979 294.801 152.999 294.906 153.039C295.012 153.078 295.107 153.136 295.188 153.209C295.268 153.282 295.332 153.368 295.375 153.463C295.418 153.558 295.439 153.66 295.438 153.763Z" fill="white"/>
<path d="M266.103 137.309V136.254C266.24 136.286 266.382 136.302 266.524 136.302C267.043 136.302 267.276 136.079 267.276 135.626V129.988H268.562V135.592C268.562 136.795 267.953 137.377 266.697 137.377C266.497 137.369 266.298 137.347 266.103 137.309Z" fill="#263238"/>
<path d="M269.396 135.565V131.698C269.38 131.459 269.418 131.219 269.509 130.993C269.599 130.767 269.74 130.561 269.923 130.386C270.106 130.211 270.327 130.071 270.572 129.976C270.817 129.881 271.081 129.832 271.348 129.832C271.615 129.832 271.879 129.881 272.124 129.976C272.369 130.071 272.59 130.211 272.773 130.386C272.955 130.561 273.097 130.767 273.187 130.993C273.278 131.219 273.316 131.459 273.299 131.698V135.565C273.316 135.805 273.278 136.045 273.187 136.27C273.097 136.496 272.955 136.703 272.773 136.878C272.59 137.052 272.369 137.192 272.124 137.287C271.879 137.382 271.615 137.432 271.348 137.432C271.081 137.432 270.817 137.382 270.572 137.287C270.327 137.192 270.106 137.052 269.923 136.878C269.74 136.703 269.599 136.496 269.509 136.27C269.418 136.045 269.38 135.805 269.396 135.565ZM272.013 135.639V131.631C272.013 131.103 271.758 130.901 271.352 130.901C270.946 130.901 270.682 131.103 270.682 131.631V135.639C270.682 136.16 270.938 136.363 271.352 136.363C271.765 136.363 272.013 136.16 272.013 135.639Z" fill="#263238"/>
<path d="M274.164 129.961H275.45V132.949H276.826V129.961H278.112V137.309H276.826V134.003H275.45V137.309H274.164V129.961Z" fill="#263238"/>
<path d="M279.075 129.961H280.684L281.932 134.355V129.961H283.083V137.309H281.759L280.255 131.942V137.309H279.112L279.075 129.961Z" fill="#263238"/>
<path d="M266.208 142.825V140.196C266.195 140.04 266.217 139.883 266.274 139.735C266.332 139.587 266.422 139.451 266.54 139.337C266.659 139.222 266.802 139.13 266.962 139.067C267.121 139.005 267.293 138.972 267.468 138.972C267.642 138.972 267.814 139.005 267.973 139.067C268.133 139.13 268.276 139.222 268.395 139.337C268.513 139.451 268.604 139.587 268.661 139.735C268.718 139.883 268.741 140.04 268.727 140.196V140.709H267.923V140.148C267.923 139.824 267.75 139.689 267.486 139.689C267.223 139.689 267.065 139.824 267.065 140.148V142.852C267.065 143.177 267.231 143.305 267.486 143.305C267.742 143.305 267.923 143.177 267.923 142.852V142.109H268.727V142.785C268.741 142.941 268.718 143.098 268.661 143.245C268.604 143.393 268.513 143.529 268.395 143.644C268.276 143.759 268.133 143.85 267.973 143.913C267.814 143.976 267.642 144.008 267.468 144.008C267.293 144.008 267.121 143.976 266.962 143.913C266.802 143.85 266.659 143.759 266.54 143.644C266.422 143.529 266.332 143.393 266.274 143.245C266.217 143.098 266.195 142.941 266.208 142.785V142.825Z" fill="#263238"/>
<path d="M269.885 139.06H271.043L271.931 143.961H271.073L270.916 142.987H269.968L269.81 143.947H269.02L269.885 139.06ZM270.818 142.339L270.434 139.912L270.066 142.339H270.818Z" fill="#263238"/>
<path d="M272.344 139.06H273.202V143.258H274.608V143.934H272.352L272.344 139.06Z" fill="#263238"/>
<path d="M275.021 139.06H275.879V143.258H277.292V143.934H275.036L275.021 139.06Z" fill="#263238"/>
<path d="M277.706 139.06H278.563V143.988H277.706V139.06Z" fill="#263238"/>
<path d="M279.203 139.06H280.278L281.105 141.994V139.06H281.857V143.988H280.977L279.947 140.412V143.988H279.195L279.203 139.06Z" fill="#263238"/>
<path d="M282.466 142.798V140.223C282.466 139.438 282.902 138.992 283.737 138.992C284.572 138.992 285.016 139.438 285.016 140.223V140.642H284.211V140.175C284.211 139.824 284.038 139.689 283.767 139.689C283.496 139.689 283.324 139.824 283.324 140.175V142.879C283.324 143.231 283.489 143.359 283.767 143.359C284.045 143.359 284.211 143.231 284.211 142.879V141.892H283.782V141.216H285.008V142.818C285.008 143.603 284.572 144.049 283.73 144.049C282.887 144.049 282.466 143.582 282.466 142.798Z" fill="#263238"/>
<path d="M285.572 143.217H286.399V143.988H285.572V143.217Z" fill="#263238"/>
<path d="M287.038 143.217H287.858V143.988H287.038V143.217Z" fill="#263238"/>
<path d="M288.497 143.217H289.324V143.988H288.497V143.217Z" fill="#263238"/>
<path d="M295.07 130.765L293.039 132.361H291.235L291.189 134.707H292.994L294.964 136.302C295.13 136.444 295.386 136.302 295.386 136.092L295.491 130.975C295.491 130.752 295.243 130.623 295.07 130.765Z" fill="#263238"/>
<path d="M296.589 131.982C297.031 132.404 297.271 132.965 297.26 133.545C297.249 134.124 296.986 134.677 296.529 135.085C296.205 135.396 296.717 135.862 297.04 135.545C297.638 135.011 297.981 134.288 297.995 133.53C298.009 132.773 297.693 132.04 297.115 131.489C296.807 131.178 296.28 131.644 296.589 131.955V131.982Z" fill="#263238"/>
<path d="M297.589 130.306C298.503 131.185 299 132.35 298.977 133.553C298.953 134.757 298.409 135.905 297.461 136.755C297.138 137.066 297.642 137.532 297.972 137.221C299.052 136.247 299.67 134.934 299.697 133.559C299.723 132.184 299.157 130.854 298.115 129.846C297.8 129.535 297.273 129.995 297.589 130.306Z" fill="#263238"/>
<path d="M172.885 85.1354H177.089L180.48 91.3479L181.631 85.1354H191.271C192.538 85.1354 193.752 84.6832 194.648 83.8782C195.543 83.0732 196.046 81.9813 196.046 80.8428V58.4199C196.046 57.2815 195.543 56.1896 194.648 55.3846C193.752 54.5796 192.538 54.1273 191.271 54.1273H172.885C171.619 54.1291 170.406 54.5819 169.51 55.3866C168.615 56.1912 168.112 57.282 168.11 58.4199V80.8428C168.112 81.9808 168.615 83.0716 169.51 83.8762C170.406 84.6808 171.619 85.1337 172.885 85.1354Z" fill="#E5D28C" stroke="#263238" stroke-linecap="round" stroke-linejoin="round"/>
<path d="M191.775 63.8279H171.118V78.0239H191.775V63.8279Z" fill="#E5D28C" stroke="#263238" stroke-linecap="round" stroke-linejoin="round"/>
<path d="M184.315 71.7168L191.768 78.0239H171.118L178.668 71.6425" fill="#E5D28C"/>
<path d="M184.315 71.7168L191.768 78.0239H171.118L178.668 71.6425" stroke="#263238" stroke-linecap="round" stroke-linejoin="round"/>
<path d="M181.443 72.5686L171.118 63.8279H191.768L181.443 72.5686Z" fill="#E5D28C" stroke="#263238" stroke-linecap="round" stroke-linejoin="round"/>
<path d="M191.429 60.8738H188.143C187.271 60.8738 186.435 61.185 185.819 61.739C185.203 62.293 184.857 63.0444 184.857 63.8279C184.857 64.6114 185.203 65.3628 185.819 65.9168C186.435 66.4708 187.271 66.782 188.143 66.782H191.429C192.301 66.782 193.137 66.4708 193.753 65.9168C194.369 65.3628 194.715 64.6114 194.715 63.8279C194.715 63.0444 194.369 62.293 193.753 61.739C193.137 61.185 192.301 60.8738 191.429 60.8738Z" fill="#E5D28C" stroke="#263238" stroke-linecap="round" stroke-linejoin="round"/>
<path d="M188.075 62.5909H187.248V62.0703C187.947 62.0703 188.196 61.9351 188.384 61.4755H188.933V66.2075H188.075V62.5909Z" fill="#E5D28C"/>
<path d="M189.857 65.0649V62.5908C189.857 62.2932 189.989 62.0077 190.223 61.7973C190.457 61.5869 190.775 61.4686 191.106 61.4686C191.437 61.4686 191.754 61.5869 191.989 61.7973C192.223 62.0077 192.354 62.2932 192.354 62.5908V65.0649C192.354 65.3626 192.223 65.648 191.989 65.8584C191.754 66.0689 191.437 66.1871 191.106 66.1871C190.775 66.1871 190.457 66.0689 190.223 65.8584C189.989 65.648 189.857 65.3626 189.857 65.0649ZM191.527 65.1123V62.5435C191.527 62.2055 191.369 62.0838 191.106 62.0838C190.843 62.0838 190.677 62.2055 190.677 62.5435V65.1123C190.677 65.4503 190.843 65.5787 191.106 65.5787C191.369 65.5787 191.527 65.4503 191.527 65.1123Z" fill="#E5D28C"/>
<path d="M175.073 193.458H169.726L171.268 185.562L163.936 193.458H151.678C150.069 193.459 148.527 194.035 147.389 195.057C146.252 196.08 145.612 197.467 145.61 198.913V227.433C145.612 228.88 146.252 230.266 147.389 231.289C148.527 232.312 150.069 232.887 151.678 232.889H175.066C176.676 232.889 178.22 232.314 179.359 231.291C180.499 230.268 181.14 228.881 181.142 227.433V198.913C181.14 197.467 180.5 196.08 179.362 195.057C178.224 194.035 176.682 193.459 175.073 193.458Z" fill="white" stroke="#263238" stroke-linecap="round" stroke-linejoin="round"/>
<path d="M153.408 211.588C151.099 209.56 150.099 207.316 150.099 205.315C150.099 201.935 152.626 199.63 156.461 199.63C160.041 199.63 161.266 201.117 163.357 203.273C165.455 201.117 166.673 199.63 170.253 199.63C174.088 199.63 176.622 201.908 176.622 205.315C176.622 207.343 175.615 209.546 173.306 211.588L164.5 219.497C164.352 219.631 164.177 219.738 163.983 219.81C163.79 219.883 163.582 219.92 163.372 219.92C163.162 219.92 162.954 219.883 162.761 219.81C162.567 219.738 162.392 219.631 162.244 219.497L153.408 211.588Z" fill="#E5D28C" stroke="#263238" stroke-miterlimit="10"/>
<path d="M153.874 209.411H158.386L160.778 203.341L165.56 215.475L167.952 209.411H172.885" stroke="#263238" stroke-linecap="round" stroke-linejoin="round"/>
<path d="M154.235 227.447V226.913C154.204 226.67 154.253 226.425 154.376 226.208C154.499 225.99 154.691 225.81 154.927 225.689C154.701 225.572 154.518 225.397 154.402 225.186C154.285 224.976 154.241 224.74 154.273 224.506V224.263C154.273 223.881 154.442 223.515 154.742 223.245C155.042 222.975 155.45 222.823 155.875 222.823C156.299 222.823 156.707 222.975 157.007 223.245C157.308 223.515 157.476 223.881 157.476 224.263V224.506C157.504 224.738 157.459 224.973 157.344 225.182C157.23 225.392 157.051 225.568 156.83 225.689C157.064 225.811 157.253 225.992 157.375 226.209C157.496 226.427 157.545 226.671 157.514 226.913V227.447C157.514 227.838 157.341 228.213 157.034 228.489C156.726 228.765 156.309 228.921 155.875 228.921C155.44 228.921 155.023 228.765 154.715 228.489C154.408 228.213 154.235 227.838 154.235 227.447ZM156.491 227.393V226.818C156.491 226.365 156.296 226.142 155.905 226.142C155.514 226.142 155.318 226.365 155.318 226.818V227.393C155.318 227.846 155.514 228.069 155.905 228.069C156.296 228.069 156.461 227.846 156.461 227.393H156.491ZM156.454 224.689V224.222C156.454 223.83 156.266 223.621 155.905 223.621C155.544 223.621 155.356 223.83 155.356 224.222V224.689C155.356 225.088 155.544 225.291 155.905 225.291C156.266 225.291 156.416 225.108 156.416 224.689H156.454Z" fill="#263238"/>
<path d="M160.214 223.709H158.1V222.85H161.244V223.675L159.604 228.84H158.537L160.214 223.709Z" fill="#263238"/>
<path d="M163.372 224.189H164.462C165.214 224.189 165.523 224.5 165.523 225.135V225.297C165.523 225.723 165.38 225.973 165.064 226.108C165.447 226.23 165.598 226.534 165.598 226.967V227.325C165.616 227.458 165.601 227.592 165.553 227.718C165.504 227.845 165.424 227.959 165.319 228.053C165.214 228.147 165.086 228.218 164.945 228.261C164.804 228.303 164.655 228.316 164.507 228.299H163.372V224.189ZM164.372 225.865C164.643 225.865 164.808 225.757 164.808 225.432V225.203C164.808 224.905 164.695 224.777 164.44 224.777H164.094V225.865H164.372ZM164.507 227.717C164.748 227.717 164.876 227.616 164.876 227.312V226.953C164.876 226.568 164.741 226.453 164.417 226.453H164.094V227.717H164.507Z" fill="#263238"/>
<path d="M166.019 224.189H167.079C167.794 224.189 168.147 224.547 168.147 225.209V225.615C168.147 226.291 167.794 226.629 167.079 226.629H166.733V228.305H166.019V224.189ZM167.079 226.041C167.305 226.041 167.433 225.946 167.433 225.656V225.162C167.433 224.871 167.305 224.777 167.079 224.777H166.733V226.041H167.079Z" fill="#263238"/>
<path d="M168.538 224.189H169.568L170.027 227.136L170.478 224.189H171.509V228.305H170.832V225.189L170.305 228.305H169.704L169.185 225.189V228.305H168.553L168.538 224.189Z" fill="#263238"/>
<path d="M116.297 322.013C158.398 322.013 192.527 317.473 192.527 311.873C192.527 306.272 158.398 301.733 116.297 301.733C74.196 301.733 40.0665 306.272 40.0665 311.873C40.0665 317.473 74.196 322.013 116.297 322.013Z" fill="#E5D28C"/>
<path d="M160.492 150.072C160.492 150.072 158.785 154.06 160.492 154.696C162.199 155.331 162.567 151.762 163.139 151.87L160.492 150.072Z" fill="#F0D3C4" stroke="#263238" stroke-linecap="round" stroke-linejoin="round"/>
<path d="M169.38 145.097C169.38 145.097 179.796 142.521 179.796 138.337C179.796 133.922 173.652 131.002 170.967 130.225C167.06 128.996 163.266 127.495 159.62 125.736C155.491 123.796 153.055 123.032 150.934 121.91C147.362 120.037 142.444 116.833 137.526 114.602L140.609 132.036C140.609 132.036 157.92 140.338 164.508 139.932C164.508 139.932 160.514 142.771 159.747 143.805L169.38 145.097Z" fill="#F0D3C4" stroke="#263238" stroke-linecap="round" stroke-linejoin="round"/>
<path d="M164.417 138.749C165.312 137.735 165.538 134.693 168.245 134.071" stroke="#263238" stroke-linecap="round" stroke-linejoin="round"/>
<path d="M166.733 138.749C166.733 138.749 171.087 136.511 173.103 140.5C175.118 144.488 170.899 145.908 170.899 145.908L161.943 146.827C161.943 146.827 157.657 142.061 163.139 140.115L166.733 138.749Z" fill="#23367D" stroke="#263238" stroke-linecap="round" stroke-linejoin="round"/>
<path d="M155.717 124.019C153.761 123.201 152.28 122.633 150.934 121.923C147.362 120.051 142.444 116.847 137.526 114.616L140.609 132.05C140.609 132.05 146.264 134.754 152.34 136.998C155.363 130.765 155.769 126.257 155.717 124.019Z" fill="#93B0B6" stroke="#263238" stroke-linecap="round" stroke-linejoin="round"/>
<path d="M168.816 139.493C166.38 140.169 159.635 141.96 159.732 143.549C159.124 143.71 158.604 144.068 158.272 144.553C157.94 145.039 157.82 145.618 157.935 146.178C158.221 148.335 158.973 150.329 160.108 151.12C161.244 151.911 164.936 155.176 165.696 154.155C166.455 153.134 164.838 151.884 164.838 151.884C164.838 151.884 167.019 153.675 168.155 152.796C169.29 151.918 166.26 149.768 165.508 148.808C165.508 148.808 169.004 151.073 170.14 149.93C170.381 149.673 170.514 149.347 170.514 149.011C170.514 148.674 170.381 148.349 170.14 148.091C170.14 148.091 171.787 148.673 172.351 147.294C172.682 146.496 171.275 145.624 171.275 145.624C171.275 145.624 173.125 143.15 172.576 141.798C172.027 140.446 171.358 138.769 168.816 139.493Z" fill="#F0D3C4" stroke="#263238" stroke-linecap="round" stroke-linejoin="round"/>
<path d="M159.635 145.387C160.058 145.808 160.38 146.303 160.582 146.841C161.431 148.857 162.909 150.611 164.838 151.891" fill="#F0D3C4"/>
<path d="M159.635 145.387C160.058 145.808 160.38 146.303 160.582 146.841C161.431 148.857 162.909 150.611 164.838 151.891" stroke="#263238" stroke-linecap="round" stroke-linejoin="round"/>
<path d="M162.236 144.191C162.565 144.54 162.808 144.948 162.951 145.387C163.568 146.658 164.434 147.819 165.508 148.815" stroke="#263238" stroke-linecap="round" stroke-linejoin="round"/>
<path d="M165.974 142.521C165.848 143.328 166.051 144.15 166.545 144.833C167.395 146.266 167.493 146.584 168.628 147.3" fill="#F0D3C4"/>
<path d="M165.974 142.521C165.848 143.328 166.051 144.15 166.545 144.833C167.395 146.266 167.493 146.584 168.628 147.3" stroke="#263238" stroke-linecap="round" stroke-linejoin="round"/>
<path d="M170.523 144.989C170.523 144.989 169.192 143.319 169.478 142.521L170.523 144.989Z" fill="#F0D3C4"/>
<path d="M170.523 144.989C170.523 144.989 169.192 143.319 169.478 142.521" stroke="#263238" stroke-linecap="round" stroke-linejoin="round"/>
<path d="M166.944 139.763L163.778 140.932C163.457 141.053 163.097 141.061 162.771 140.953C162.445 140.845 162.176 140.63 162.018 140.351C161.95 140.214 161.914 140.065 161.913 139.915C161.911 139.764 161.943 139.615 162.008 139.476C162.073 139.338 162.169 139.212 162.289 139.108C162.41 139.004 162.553 138.923 162.71 138.871L165.876 137.708C166.195 137.585 166.553 137.576 166.879 137.683C167.204 137.79 167.472 138.004 167.628 138.283C167.699 138.419 167.737 138.568 167.74 138.718C167.744 138.869 167.712 139.019 167.648 139.158C167.584 139.297 167.488 139.423 167.367 139.527C167.245 139.631 167.101 139.711 166.944 139.763Z" fill="#999999" stroke="#263238" stroke-linecap="round" stroke-linejoin="round"/>
<path d="M131.908 186.367C131.908 186.367 134.164 208.675 123.96 239.142C123.378 243.249 122.034 247.239 119.982 250.945C119.982 250.945 118.094 284.427 120.177 298.143L112.221 301.807L105.979 299.732C105.979 299.732 108.438 292.877 104.844 279.803C101.249 266.729 99.7302 255.886 103.52 249.985C107.31 244.083 102.016 232.287 101.151 214.752L99.7302 200.056C99.7302 200.056 84.9684 179.992 103.137 170.744L133.217 183.128L131.908 186.367Z" fill="#F3CCC7" stroke="#263238" stroke-linecap="round" stroke-linejoin="round"/>
<path d="M105.566 297.629C106.686 297.109 108.844 298.305 109.679 300.171C110.514 302.037 117.199 296.494 118.741 297.629C120.282 298.765 117.816 294.513 120.5 294.161C123.185 293.81 122.568 297.487 126.441 299.569C130.314 301.652 145.993 303.173 146.091 307.485C146.144 309.919 132.171 309.669 119.997 309.513C110.597 309.378 102.58 309.716 102.295 308.574C101.949 307.174 102.889 305.038 103.325 303.017C103.836 300.583 103.994 298.353 105.566 297.629Z" fill="#CF9670" stroke="#263238" stroke-linecap="round" stroke-linejoin="round"/>
<path d="M146.091 307.452C146.144 309.885 132.172 309.635 119.997 309.48C110.597 309.344 102.58 309.682 102.295 308.54C102.295 308.54 102.046 310.304 102.798 311.082C102.798 311.082 107.077 312.001 117.906 311.575C128.735 311.149 129.231 312.366 142.233 311.69C142.233 311.636 147.099 311.055 146.091 307.452Z" fill="white" stroke="#263238" stroke-linecap="round" stroke-linejoin="round"/>
<path d="M103.137 170.744C84.9684 179.992 99.7302 200.055 99.7302 200.055L101.151 214.752C101.37 219.294 101.903 223.459 102.475 227.231C110.655 228.654 119.043 228.839 127.291 227.778C133.6 203.294 131.878 186.366 131.878 186.366L133.224 183.128L103.137 170.744Z" fill="#23367D"/>
<mask id="mask1_0_1292" style="mask-type:luminance" maskUnits="userSpaceOnUse" x="94" y="170" width="40" height="59">
<path d="M103.137 170.744C84.9684 179.992 99.7302 200.055 99.7302 200.055L101.151 214.752C101.37 219.294 101.903 223.459 102.475 227.231C110.655 228.654 119.043 228.839 127.291 227.778C133.6 203.294 131.878 186.366 131.878 186.366L133.224 183.128L103.137 170.744Z" fill="white"/>
</mask>
<g mask="url(#mask1_0_1292)">
<path opacity="0.2" d="M131.908 186.367C131.908 186.367 131.6 203.179 124.155 207.999C116.71 212.818 112.747 232.375 102.219 239.135C91.6913 245.895 100.775 205.132 100.775 205.132L103.776 188.131L115.289 182.797L126.524 183.548L131.908 186.367Z" fill="black"/>
</g>
<path d="M103.137 170.744C84.9684 179.992 99.7302 200.055 99.7302 200.055L101.151 214.752C101.37 219.294 101.903 223.459 102.475 227.231C110.655 228.654 119.043 228.839 127.291 227.778C133.6 203.294 131.878 186.366 131.878 186.366L133.224 183.128L103.137 170.744Z" fill="#93B0B6" stroke="#263238" stroke-linecap="round" stroke-linejoin="round"/>
<path d="M112.8 248.092C112.8 248.092 114.124 250.005 117.718 251.283" stroke="#263238" stroke-linecap="round" stroke-linejoin="round"/>
<path d="M135.315 183.973C135.315 183.973 131.698 188.253 130.961 189.875C129.194 193.789 127.644 203.125 121.425 206.369C120.234 206.955 119.279 207.863 118.696 208.965C115.688 215.049 105.791 234.146 97.0832 241.217C86.6755 249.667 76.2603 243.13 73.9893 238.026C71.7182 232.923 71.8912 228.096 70.9813 221.762C69.4773 211.622 68.7253 189.077 66.2437 180.465C66.2437 180.465 74.5758 177.599 77.6064 182.06C77.6064 182.06 86.307 201.036 87.0665 209.168C87.0665 209.168 89.5256 202.151 89.5256 195.614C89.5256 189.077 86.307 177.119 103.152 170.744L135.315 183.973Z" fill="#F3CCC7" stroke="#263238" stroke-linecap="round" stroke-linejoin="round"/>
<path d="M135.315 183.973L103.137 170.744C86.292 177.112 89.488 189.077 89.488 195.614C89.3708 199.743 88.6889 203.843 87.4576 207.823C87.6531 211.061 87.8185 216.07 87.2169 219.213C87.2169 219.213 98.1284 225.615 107.025 229.353C111.341 222.762 115.231 215.953 118.673 208.958C119.256 207.856 120.211 206.948 121.403 206.363C127.622 203.118 129.171 193.782 130.938 189.868C131.698 188.253 135.315 183.973 135.315 183.973Z" fill="#93B0B6" stroke="#263238" stroke-linecap="round" stroke-linejoin="round"/>
<path d="M87.232 221.126C87.232 221.126 86.48 227.508 83.2614 231.489" stroke="#263238" stroke-linecap="round" stroke-linejoin="round"/>
<path d="M81.3739 242.684C82.9301 241.209 84.9991 240.255 87.2395 239.98" stroke="#263238" stroke-linecap="round" stroke-linejoin="round"/>
<path d="M80.5317 188.104C79.2608 187.867 77.0574 186.346 77.8771 184.453C78.6968 182.561 69.8909 183.014 69.6051 181.29C69.3193 179.566 67.8379 184.846 65.4841 183.602C63.935 182.777 63.7094 180.857 64.3712 178.565C64.7171 177.389 65.6496 176.105 65.1909 174.827C63.8598 171.028 53.0085 160.989 56.4 157.616C58.3025 155.717 68.8681 163.808 78.1027 170.825C85.2392 176.233 91.6838 180.519 90.992 181.567C90.1197 182.872 86.8109 183.264 84.803 184.589C82.532 186.083 82.2913 188.428 80.5317 188.104Z" fill="#CF9670" stroke="#263238" stroke-linecap="round" stroke-linejoin="round"/>
<path d="M56.4 157.616C58.3025 155.717 68.8681 163.808 78.1027 170.825C85.2392 176.233 91.6838 180.519 90.992 181.567C90.992 181.567 92.5937 180.35 92.6313 179.323C92.6313 179.323 90.067 176.193 81.3513 170.399C72.6356 164.606 73.2673 163.389 62.7092 156.555C62.7092 156.555 58.4755 154.27 56.4 157.616Z" fill="white" stroke="#263238" stroke-linecap="round" stroke-linejoin="round"/>
<path d="M105.791 117.009C105.791 117.009 105.603 132.631 107.115 143.792C108.626 154.953 106.739 161.97 99.7302 171.697C110.787 178.142 122.841 183.085 135.503 186.367C135.503 186.367 148.189 158.786 148.753 147.3C151.031 138.526 149.543 129.302 144.587 121.471C136.262 108.559 124.524 105.848 118.094 107.917C111.664 109.985 105.468 113.386 105.791 117.009Z" fill="#93B0B6" stroke="#263238" stroke-linecap="round" stroke-linejoin="round"/>
<path d="M149.505 134.071C148.83 129.63 147.198 125.35 144.7 121.47" stroke="#7F7F7F" stroke-linecap="round" stroke-linejoin="round"/>
<path d="M131.171 98.9529C129.463 95.7625 128.224 92.3856 127.487 88.9076C126.577 83.8849 130.389 83.7429 130.389 83.7429C130.389 83.7429 129.81 80.0114 134.578 78.5039C139.346 76.9964 146.332 79.6531 150.851 77.1519C155.371 74.6507 152.694 78.8014 152.694 78.8014C152.694 78.8014 157.318 75.5768 158.085 75.7864C158.852 75.996 156.897 81.0998 156.897 81.0998C156.897 81.0998 158.341 78.8757 159.198 79.234C160.056 79.5923 156.694 84.6893 155.649 87.6299C154.604 90.5705 146.76 97.2426 146.76 97.2426L140.12 104.415L135.691 102.914L131.171 98.9529Z" fill="#EC5335" stroke="#263238" stroke-linecap="round" stroke-linejoin="round"/>
<path d="M131.6 101.4C131.6 101.4 130.013 107.903 127.517 108.958C127.517 108.958 136.142 120.558 142.391 119.098C144.813 118.53 140.346 117.746 145.459 111.445C150.573 105.145 132.51 100.332 132.51 100.332L131.6 101.4Z" fill="white"/>
<mask id="mask2_0_1292" style="mask-type:luminance" maskUnits="userSpaceOnUse" x="127" y="100" width="20" height="20">
<path d="M131.6 101.4C131.6 101.4 130.013 107.903 127.517 108.958C127.517 108.958 136.142 120.558 142.391 119.098C144.813 118.53 140.346 117.746 145.459 111.445C150.573 105.145 132.51 100.332 132.51 100.332L131.6 101.4Z" fill="white"/>
</mask>
<g mask="url(#mask2_0_1292)">
<path d="M139.564 101.833C139.225 102.265 138.767 102.286 137.849 101.833H131.968C132.483 102.287 133.109 102.628 133.796 102.826C133.796 102.826 134.157 109.471 140.767 112.601C147.377 115.731 149.264 115.211 151.611 112.128C153.595 109.268 154.998 106.114 155.754 102.813C155.832 102.471 155.963 102.141 156.145 101.833H139.564Z" fill="#263238" stroke="#263238" stroke-linecap="round" stroke-linejoin="round"/>
</g>
<path d="M131.171 101.792C131.171 101.792 129.585 108.295 127.088 109.35C127.088 109.35 135.713 120.95 141.963 119.49C144.384 118.922 139.917 118.138 145.031 111.837C150.144 105.537 132.081 100.724 132.081 100.724L131.171 101.792Z" fill="#F0D3C4" stroke="#263238" stroke-linecap="round" stroke-linejoin="round"/>
<path d="M136.571 98.5203C136.571 98.5203 136.225 96.4923 132.811 96.3233C129.397 96.1543 129.179 103.306 134.691 103.881C134.691 103.881 136.789 110.289 144.053 112.108C151.317 113.926 153.024 113.061 154.506 109.62C155.685 106.446 156.223 103.108 156.093 99.7642C155.98 98.0404 157.8 95.938 157.115 93.4503C156.431 90.9627 155.611 87.6165 155.611 87.6165C155.611 87.6165 154.814 90.868 151.295 90.9627C147.775 91.0573 141.188 88.8603 140.504 89.8135C139.819 90.7666 144.7 94.0249 143.79 94.9781C142.88 95.9313 140.391 97.7565 140.278 99.8588C140.165 101.961 140.165 102.637 138.345 102.157C137.075 101.812 136.571 98.5203 136.571 98.5203Z" fill="#F0D3C4" stroke="#263238" stroke-linecap="round" stroke-linejoin="round"/>
<path d="M155.724 98.3378C155.521 99.6086 156.544 102.759 157.048 104.212C157.076 104.301 157.08 104.395 157.061 104.486C157.042 104.578 156.999 104.663 156.936 104.737C156.873 104.81 156.792 104.87 156.699 104.91C156.606 104.95 156.504 104.971 156.401 104.969C155.536 104.969 154.303 105.091 153.927 105.409C153.761 105.544 153.784 106.159 153.784 106.159" fill="#F0D3C4"/>
<path d="M155.724 98.3378C155.521 99.6086 156.544 102.759 157.048 104.212C157.076 104.301 157.08 104.395 157.061 104.486C157.042 104.578 156.999 104.663 156.936 104.737C156.873 104.81 156.792 104.87 156.699 104.91C156.606 104.95 156.504 104.971 156.401 104.969C155.536 104.969 154.303 105.091 153.927 105.409C153.761 105.544 153.784 106.159 153.784 106.159" stroke="#263238" stroke-linecap="round" stroke-linejoin="round"/>
<path d="M152.017 99.737C151.934 100.251 151.596 100.643 151.265 100.602C150.934 100.562 150.723 100.116 150.806 99.6019C150.889 99.0881 151.22 98.696 151.558 98.7298C151.896 98.7636 152.099 99.2165 152.017 99.737Z" fill="#263238"/>
<path d="M149.317 97.6347C149.317 97.6347 150.656 95.5256 153.303 96.9992L149.317 97.6347Z" fill="#F3CCC7"/>
<path d="M149.317 97.6347C149.317 97.6347 150.656 95.5256 153.303 96.9992" stroke="#263238" stroke-linecap="round" stroke-linejoin="round"/>
<path d="M153.092 107.241C153.092 107.241 151.52 108.126 148.302 106.369" stroke="#263238" stroke-linecap="round" stroke-linejoin="round"/>
<path d="M133.728 84.8312C133.728 84.8312 133.292 80.4169 138.413 80.6941C143.534 80.9713 149.257 82.5734 155.431 78.3484" stroke="#7F7F7F" stroke-linecap="round" stroke-linejoin="round"/>
<path d="M156.897 81.12C156.897 81.12 153.889 86.8052 149.746 88.556" stroke="#7F7F7F" stroke-linecap="round" stroke-linejoin="round"/>
<path d="M155.431 80.3224C155.431 80.3224 151.573 84.8313 142.647 84.8313" stroke="#7F7F7F" stroke-linecap="round" stroke-linejoin="round"/>
<path d="M62.6867 155.865C62.6867 155.865 70.9587 130.853 73.3801 124.181C76.0723 116.745 84.0209 117.009 102.949 111.27C121.877 105.53 125.764 107.68 128.201 109.83C130.637 111.979 133.615 124.499 112.792 126.892C91.9696 129.285 87.2245 130.718 87.2245 130.718C87.2245 130.718 80.7272 140.02 78.3283 144.238C76.4633 147.557 70.5677 158.59 70.5677 158.59C70.9331 160.428 71.4637 162.236 72.1544 163.998C73.3952 167.114 75.5835 170.758 74.3577 170.758C70.5376 170.758 72.2672 167.824 69.4998 167.094C66.7325 166.364 68.5297 171.508 65.1984 174.841C65.1984 174.841 62.431 174.976 62.807 172.745C62.807 172.745 60.9045 172.887 60.724 169.987C60.4239 169.943 60.1369 169.844 59.8802 169.697C59.6235 169.551 59.4025 169.359 59.2304 169.133C59.0583 168.908 58.9387 168.654 58.8787 168.386C58.8188 168.118 58.8198 167.841 58.8816 167.574C58.4232 167.377 58.0351 167.069 57.7614 166.684C57.4876 166.299 57.339 165.854 57.3325 165.397C57.3325 163.808 57.152 161.713 62.6867 155.865Z" fill="#F3CCC7" stroke="#263238" stroke-linecap="round" stroke-linejoin="round"/>
<path d="M128.201 109.83C125.764 107.68 121.877 105.53 102.949 111.27C99.7753 112.23 96.9328 113.02 94.3384 113.71C95.7221 116.062 98.7 121.944 98.4669 128.724C102.076 128.203 106.739 127.588 112.792 126.892C133.615 124.499 130.72 112.067 128.201 109.83Z" fill="#93B0B6" stroke="#263238" stroke-linecap="round" stroke-linejoin="round"/>
<path d="M87.9313 127.372C88.1271 128.536 87.8836 129.726 87.2395 130.752" stroke="#263238" stroke-linecap="round" stroke-linejoin="round"/>
<path d="M128.908 117.725C129.138 117.08 129.289 116.413 129.359 115.738" stroke="#7F7F7F" stroke-linecap="round" stroke-linejoin="round"/>
<path d="M107.686 127.372L112.251 126.831C121.373 125.783 125.945 122.775 127.99 119.605" stroke="#7F7F7F" stroke-linecap="round" stroke-linejoin="round"/>
<path d="M107.536 146.334C108.243 151.545 109.652 156.659 111.732 161.564" stroke="#7F7F7F" stroke-linecap="round" stroke-linejoin="round"/>
<path d="M117.034 132.814C118.026 136.005 121.899 137.836 125.569 138.12C129.239 138.404 132.878 137.519 136.533 137.147C140.188 136.775 144.226 137.032 147.024 139.175" stroke="#7F7F7F" stroke-linecap="round" stroke-linejoin="round"/>
</g>
<defs>
<clipPath id="clip0_0_1292">
<rect width="376" height="338" fill="white"/>
</clipPath>
</defs>
</svg>
